<svg width="12" height="15" viewBox="0 0 12 15" fill="none" xmlns="http://www.w3.org/2000/svg">
<path d="M12 0.681818C12 0.306818 11.6824 0 11.2941 0H0.705882C0.317647 0 0 0.306818 0 0.681818V14.3182C0 14.6932 0.317647 15 0.705882 15H11.2941C11.6824 15 12 14.6932 12 14.3182V0.681818ZM10.5882 13.6364H1.41176V1.36364H10.5882V13.6364ZM3.17647 11.1648C3.17647 10.8409 3.45882 10.5682 3.79412 10.5682H7.99412C8.32941 10.5682 8.61176 10.8409 8.61176 11.1648C8.61176 11.4886 8.32941 11.7614 7.99412 11.7614H3.79412C3.45882 11.7614 3.17647 11.4886 3.17647 11.1648ZM3.17647 8.77841C3.17647 8.45455 3.45882 8.18182 3.79412 8.18182H7.99412C8.32941 8.18182 8.61176 8.45455 8.61176 8.77841C8.61176 9.10227 8.32941 9.375 7.99412 9.375H3.79412C3.45882 9.375 3.17647 9.10227 3.17647 8.77841ZM8.64706 3.83523C8.64706 3.51136 8.36471 3.23864 8.02941 3.23864H3.79412C3.45882 3.23864 3.17647 3.51136 3.17647 3.83523V6.22159C3.17647 6.54545 3.45882 6.81818 3.79412 6.81818H8.02941C8.36471 6.81818 8.64706 6.54545 8.64706 6.22159V3.83523ZM4.41176 4.43182H7.41176V5.625H4.41176V4.43182Z" fill="#7F3F98"/>
</svg>
