<svg width="16" height="15" viewBox="0 0 16 15" fill="none" xmlns="http://www.w3.org/2000/svg">
<path fill-rule="evenodd" clip-rule="evenodd" d="M12 8.25488H4C3.72386 8.25488 3.5 8.47874 3.5 8.75488V12.7549C3.5 13.031 3.72386 13.2549 4 13.2549H12C12.2761 13.2549 12.5 13.031 12.5 12.7549V8.75488C12.5 8.47874 12.2761 8.25488 12 8.25488ZM4 6.75488C2.89543 6.75488 2 7.65031 2 8.75488V12.7549C2 13.8595 2.89543 14.7549 4 14.7549H12C13.1046 14.7549 14 13.8595 14 12.7549V8.75488C14 7.65031 13.1046 6.75488 12 6.75488H4Z" fill="#7F3F98"/>
<path fill-rule="evenodd" clip-rule="evenodd" d="M15 13.2549C15 13.531 15.2239 13.7549 15.5 13.7549C15.7761 13.7549 16 13.531 16 13.2549V8.25488C16 7.97874 15.7761 7.75488 15.5 7.75488C15.2239 7.75488 15 7.97874 15 8.25488V13.2549Z" fill="#7F3F98"/>
<path fill-rule="evenodd" clip-rule="evenodd" d="M0 13.2549C0 13.531 0.223858 13.7549 0.5 13.7549C0.776142 13.7549 1 13.531 1 13.2549V8.25488C1 7.97874 0.776142 7.75488 0.5 7.75488C0.223858 7.75488 0 7.97874 0 8.25488V13.2549Z" fill="#7F3F98"/>
<path fill-rule="evenodd" clip-rule="evenodd" d="M13.3846 5.75H2.61538C2.318 5.75 2.07692 5.97386 2.07692 6.25C2.07692 6.52614 2.318 6.75 2.61539 6.75H13.3846C13.682 6.75 13.9231 6.52614 13.9231 6.25C13.9231 5.97386 13.682 5.75 13.3846 5.75ZM2.61538 4.75C1.72323 4.75 1 5.42157 1 6.25C1 7.07843 1.72323 7.75 2.61539 7.75H13.3846C14.2768 7.75 15 7.07843 15 6.25C15 5.42157 14.2768 4.75 13.3846 4.75H2.61538Z" fill="#7F3F98"/>
<path fill-rule="evenodd" clip-rule="evenodd" d="M6 9.02588C6.41421 9.02588 6.75 9.36167 6.75 9.77588V10.7243C6.75 11.1385 6.41421 11.4743 6 11.4743C5.58579 11.4743 5.25 11.1385 5.25 10.7243V9.77588C5.25 9.36167 5.58579 9.02588 6 9.02588Z" fill="#7F3F98"/>
<path fill-rule="evenodd" clip-rule="evenodd" d="M8 9.02588C8.41421 9.02588 8.75 9.36167 8.75 9.77588V10.7243C8.75 11.1385 8.41421 11.4743 8 11.4743C7.58579 11.4743 7.25 11.1385 7.25 10.7243V9.77588C7.25 9.36167 7.58579 9.02588 8 9.02588Z" fill="#7F3F98"/>
<path fill-rule="evenodd" clip-rule="evenodd" d="M10 9.02588C10.4142 9.02588 10.75 9.36167 10.75 9.77588V10.7243C10.75 11.1385 10.4142 11.4743 10 11.4743C9.58579 11.4743 9.25 11.1385 9.25 10.7243V9.77588C9.25 9.36167 9.58579 9.02588 10 9.02588Z" fill="#7F3F98"/>
<path fill-rule="evenodd" clip-rule="evenodd" d="M4.34436 0.0258789C4.75857 0.0258789 5.09436 0.361665 5.09436 0.775879V4.6066C5.09436 5.02081 4.75857 5.35659 4.34436 5.35659C3.93015 5.35659 3.59436 5.02081 3.59436 4.6066V0.775879C3.59436 0.361665 3.93015 0.0258789 4.34436 0.0258789Z" fill="#7F3F98"/>
<path fill-rule="evenodd" clip-rule="evenodd" d="M6.10547 0.75C6.10547 1.16421 5.76968 1.5 5.35547 1.5L3.33325 1.5C2.91903 1.5 2.58325 1.16421 2.58325 0.75C2.58325 0.335786 2.91903 0 3.33325 0L5.35547 0C5.76968 0 6.10547 0.335786 6.10547 0.75Z" fill="#7F3F98"/>
<path fill-rule="evenodd" clip-rule="evenodd" d="M6.10547 2.89258C6.10547 3.30679 5.76968 3.64258 5.35547 3.64258H3.33325C2.91903 3.64258 2.58325 3.30679 2.58325 2.89258C2.58325 2.47836 2.91903 2.14258 3.33325 2.14258H5.35547C5.76968 2.14258 6.10547 2.47836 6.10547 2.89258Z" fill="#7F3F98"/>
<path fill-rule="evenodd" clip-rule="evenodd" d="M12.0111 0.0258789C12.4253 0.0258789 12.7611 0.361665 12.7611 0.775879V4.6066C12.7611 5.02081 12.4253 5.35659 12.0111 5.35659C11.5969 5.35659 11.2611 5.02081 11.2611 4.6066V0.775879C11.2611 0.361665 11.5969 0.0258789 12.0111 0.0258789Z" fill="#7F3F98"/>
<path fill-rule="evenodd" clip-rule="evenodd" d="M13.7722 0.75C13.7722 1.16421 13.4364 1.5 13.0222 1.5L11 1.5C10.5858 1.5 10.25 1.16421 10.25 0.75C10.25 0.335786 10.5858 0 11 0L13.0222 0C13.4364 0 13.7722 0.335786 13.7722 0.75Z" fill="#7F3F98"/>
<path fill-rule="evenodd" clip-rule="evenodd" d="M13.7722 2.89258C13.7722 3.30679 13.4364 3.64258 13.0222 3.64258H11C10.5858 3.64258 10.25 3.30679 10.25 2.89258C10.25 2.47836 10.5858 2.14258 11 2.14258H13.0222C13.4364 2.14258 13.7722 2.47836 13.7722 2.89258Z" fill="#7F3F98"/>
</svg>
