<svg xmlns="http://www.w3.org/2000/svg" width="41.535" height="59.249" viewBox="0 0 41.535 59.249">
  <g id="Group_49" data-name="Group 49" transform="translate(-877.655 -980.646)">
    <g id="light-bulb-on" transform="translate(865 968)">
      <path id="Path_35" data-name="Path 35" d="M75.605,33.325A21.026,21.026,0,0,1,72.9,43.539a1.525,1.525,0,0,1-.348.614l-.178.259A18.706,18.706,0,0,1,70.1,47.377c-3.055,4.275-4.622,7.943-4.541,10.295v.089c0,.178.089.436.089.695v7.507a5.94,5.94,0,0,1-5.931,5.931H50.038a5.94,5.94,0,0,1-5.931-5.931V57.673c.089-2.271-1.487-5.85-4.364-10.036a17.291,17.291,0,0,1-2.618-3.491c-.089-.178-.178-.259-.259-.436a20.5,20.5,0,0,1-2.8-10.295,20.768,20.768,0,0,1,41.535-.089Zm-13.18,26H47.331v2.966H62.426V59.329Zm0,6.812v-.614H47.331v.614a2.734,2.734,0,0,0,2.707,2.44h9.689A2.726,2.726,0,0,0,62.426,66.141Zm.089-10.028Z" transform="translate(-21.416)" fill="#f55"/>
    </g>
  </g>
</svg>
